<mxfile host="app.diagrams.net" agent="Mozilla/5.0 (Windows NT 10.0; Win64; x64) AppleWebKit/537.36 (KHTML, like Gecko) Chrome/129.0.0.0 Safari/537.36 Edg/129.0.0.0" version="24.7.17">
  <diagram name="第 1 页" id="zwMGt2u0FcWau5ByTAZd">
    <mxGraphModel dx="2066" dy="1141" grid="0" gridSize="10" guides="1" tooltips="1" connect="1" arrows="1" fold="1" page="1" pageScale="1" pageWidth="827" pageHeight="1169" math="0" shadow="0">
      <root>
        <mxCell id="0" />
        <mxCell id="1" parent="0" />
        <mxCell id="Xwy3CmNZhMF4MyUA5o1_-1" value="" style="rounded=1;whiteSpace=wrap;html=1;fillColor=#d5e8d4;strokeColor=#82b366;dashed=1;fontSize=14;" vertex="1" parent="1">
          <mxGeometry x="300" y="280" width="310" height="480" as="geometry" />
        </mxCell>
        <mxCell id="Xwy3CmNZhMF4MyUA5o1_-2" value="&lt;font style=&quot;font-size: 14px;&quot;&gt;I am a String&lt;/font&gt;" style="rounded=1;whiteSpace=wrap;html=1;fillColor=#ffe6cc;strokeColor=#d79b00;fontSize=14;" vertex="1" parent="1">
          <mxGeometry x="367" y="300" width="110" height="40" as="geometry" />
        </mxCell>
        <mxCell id="Xwy3CmNZhMF4MyUA5o1_-3" value="filed 1" style="rounded=1;whiteSpace=wrap;html=1;fillColor=#fff2cc;strokeColor=#d6b656;fontSize=14;" vertex="1" parent="1">
          <mxGeometry x="340" y="361" width="80" height="40" as="geometry" />
        </mxCell>
        <mxCell id="Xwy3CmNZhMF4MyUA5o1_-4" value="value 1" style="rounded=1;whiteSpace=wrap;html=1;fillColor=#fff2cc;strokeColor=#d6b656;fontSize=14;" vertex="1" parent="1">
          <mxGeometry x="420" y="361" width="80" height="40" as="geometry" />
        </mxCell>
        <mxCell id="Xwy3CmNZhMF4MyUA5o1_-7" value="filed 2" style="rounded=1;whiteSpace=wrap;html=1;fillColor=#fff2cc;strokeColor=#d6b656;fontSize=14;" vertex="1" parent="1">
          <mxGeometry x="340" y="401" width="80" height="40" as="geometry" />
        </mxCell>
        <mxCell id="Xwy3CmNZhMF4MyUA5o1_-8" value="value 2" style="rounded=1;whiteSpace=wrap;html=1;fillColor=#fff2cc;strokeColor=#d6b656;fontSize=14;" vertex="1" parent="1">
          <mxGeometry x="420" y="401" width="80" height="40" as="geometry" />
        </mxCell>
        <mxCell id="Xwy3CmNZhMF4MyUA5o1_-9" value="a" style="rounded=1;whiteSpace=wrap;html=1;fillColor=#f8cecc;strokeColor=#b85450;fontSize=14;" vertex="1" parent="1">
          <mxGeometry x="340" y="471" width="40" height="40" as="geometry" />
        </mxCell>
        <mxCell id="Xwy3CmNZhMF4MyUA5o1_-10" value="b" style="rounded=1;whiteSpace=wrap;html=1;fillColor=#f8cecc;strokeColor=#b85450;fontSize=14;" vertex="1" parent="1">
          <mxGeometry x="380" y="471" width="40" height="40" as="geometry" />
        </mxCell>
        <mxCell id="Xwy3CmNZhMF4MyUA5o1_-11" value="c" style="rounded=1;whiteSpace=wrap;html=1;fillColor=#f8cecc;strokeColor=#b85450;fontSize=14;" vertex="1" parent="1">
          <mxGeometry x="420" y="471" width="40" height="40" as="geometry" />
        </mxCell>
        <mxCell id="Xwy3CmNZhMF4MyUA5o1_-15" value="d" style="rounded=1;whiteSpace=wrap;html=1;fillColor=#f8cecc;strokeColor=#b85450;fontSize=14;" vertex="1" parent="1">
          <mxGeometry x="460" y="471" width="40" height="40" as="geometry" />
        </mxCell>
        <mxCell id="Xwy3CmNZhMF4MyUA5o1_-16" value="a" style="rounded=1;whiteSpace=wrap;html=1;fillColor=#e1d5e7;strokeColor=#9673a6;fontSize=14;" vertex="1" parent="1">
          <mxGeometry x="367" y="563" width="40" height="40" as="geometry" />
        </mxCell>
        <mxCell id="Xwy3CmNZhMF4MyUA5o1_-17" value="b" style="rounded=1;whiteSpace=wrap;html=1;fillColor=#e1d5e7;strokeColor=#9673a6;fontSize=14;" vertex="1" parent="1">
          <mxGeometry x="421" y="537.5" width="40" height="40" as="geometry" />
        </mxCell>
        <mxCell id="Xwy3CmNZhMF4MyUA5o1_-18" value="c" style="rounded=1;whiteSpace=wrap;html=1;fillColor=#e1d5e7;strokeColor=#9673a6;fontSize=14;" vertex="1" parent="1">
          <mxGeometry x="421" y="593" width="40" height="40" as="geometry" />
        </mxCell>
        <mxCell id="Xwy3CmNZhMF4MyUA5o1_-19" value="a: 0.1" style="rounded=1;whiteSpace=wrap;html=1;fillColor=#dae8fc;strokeColor=#6c8ebf;fontSize=14;" vertex="1" parent="1">
          <mxGeometry x="342" y="677" width="60" height="40" as="geometry" />
        </mxCell>
        <mxCell id="Xwy3CmNZhMF4MyUA5o1_-22" value="c: 5" style="rounded=1;whiteSpace=wrap;html=1;fillColor=#dae8fc;strokeColor=#6c8ebf;fontSize=14;" vertex="1" parent="1">
          <mxGeometry x="422" y="710" width="60" height="40" as="geometry" />
        </mxCell>
        <mxCell id="Xwy3CmNZhMF4MyUA5o1_-23" value="b: 3" style="rounded=1;whiteSpace=wrap;html=1;fillColor=#dae8fc;strokeColor=#6c8ebf;fontSize=14;" vertex="1" parent="1">
          <mxGeometry x="422" y="660" width="60" height="40" as="geometry" />
        </mxCell>
        <mxCell id="Xwy3CmNZhMF4MyUA5o1_-27" value="字符串" style="text;html=1;align=center;verticalAlign=middle;whiteSpace=wrap;rounded=0;fontSize=14;" vertex="1" parent="1">
          <mxGeometry x="500" y="305" width="60" height="30" as="geometry" />
        </mxCell>
        <mxCell id="Xwy3CmNZhMF4MyUA5o1_-28" value="哈希" style="text;html=1;align=center;verticalAlign=middle;whiteSpace=wrap;rounded=0;fontSize=14;" vertex="1" parent="1">
          <mxGeometry x="520" y="380" width="60" height="30" as="geometry" />
        </mxCell>
        <mxCell id="Xwy3CmNZhMF4MyUA5o1_-29" value="列表" style="text;html=1;align=center;verticalAlign=middle;whiteSpace=wrap;rounded=0;fontSize=14;" vertex="1" parent="1">
          <mxGeometry x="520" y="476" width="60" height="30" as="geometry" />
        </mxCell>
        <mxCell id="Xwy3CmNZhMF4MyUA5o1_-30" value="集合" style="text;html=1;align=center;verticalAlign=middle;whiteSpace=wrap;rounded=0;fontSize=14;" vertex="1" parent="1">
          <mxGeometry x="500" y="568" width="60" height="30" as="geometry" />
        </mxCell>
        <mxCell id="Xwy3CmNZhMF4MyUA5o1_-31" value="有序集合" style="text;html=1;align=center;verticalAlign=middle;whiteSpace=wrap;rounded=0;fontSize=14;" vertex="1" parent="1">
          <mxGeometry x="510" y="682" width="60" height="30" as="geometry" />
        </mxCell>
        <mxCell id="Xwy3CmNZhMF4MyUA5o1_-33" style="rounded=0;orthogonalLoop=1;jettySize=auto;html=1;entryX=0;entryY=0.5;entryDx=0;entryDy=0;exitX=1;exitY=0.5;exitDx=0;exitDy=0;" edge="1" parent="1" source="Xwy3CmNZhMF4MyUA5o1_-32" target="Xwy3CmNZhMF4MyUA5o1_-2">
          <mxGeometry relative="1" as="geometry" />
        </mxCell>
        <mxCell id="Xwy3CmNZhMF4MyUA5o1_-32" value="&lt;font style=&quot;font-size: 14px;&quot;&gt;key&lt;/font&gt;" style="rounded=1;whiteSpace=wrap;html=1;glass=0;fillColor=#d5e8d4;strokeColor=#82b366;" vertex="1" parent="1">
          <mxGeometry x="100" y="490" width="90" height="42" as="geometry" />
        </mxCell>
        <mxCell id="Xwy3CmNZhMF4MyUA5o1_-34" style="rounded=0;orthogonalLoop=1;jettySize=auto;html=1;entryX=0;entryY=0;entryDx=0;entryDy=0;" edge="1" parent="1" target="Xwy3CmNZhMF4MyUA5o1_-7">
          <mxGeometry relative="1" as="geometry">
            <mxPoint x="190" y="510" as="sourcePoint" />
            <mxPoint x="377" y="330" as="targetPoint" />
          </mxGeometry>
        </mxCell>
        <mxCell id="Xwy3CmNZhMF4MyUA5o1_-35" style="rounded=0;orthogonalLoop=1;jettySize=auto;html=1;entryX=0;entryY=0.5;entryDx=0;entryDy=0;" edge="1" parent="1" target="Xwy3CmNZhMF4MyUA5o1_-9">
          <mxGeometry relative="1" as="geometry">
            <mxPoint x="190" y="510" as="sourcePoint" />
            <mxPoint x="387" y="340" as="targetPoint" />
          </mxGeometry>
        </mxCell>
        <mxCell id="Xwy3CmNZhMF4MyUA5o1_-36" style="rounded=0;orthogonalLoop=1;jettySize=auto;html=1;entryX=0;entryY=0.5;entryDx=0;entryDy=0;exitX=1;exitY=0.5;exitDx=0;exitDy=0;" edge="1" parent="1" source="Xwy3CmNZhMF4MyUA5o1_-32" target="Xwy3CmNZhMF4MyUA5o1_-16">
          <mxGeometry relative="1" as="geometry">
            <mxPoint x="200" y="520" as="sourcePoint" />
            <mxPoint x="350" y="501" as="targetPoint" />
          </mxGeometry>
        </mxCell>
        <mxCell id="Xwy3CmNZhMF4MyUA5o1_-37" style="rounded=0;orthogonalLoop=1;jettySize=auto;html=1;entryX=0;entryY=0.5;entryDx=0;entryDy=0;exitX=1;exitY=0.5;exitDx=0;exitDy=0;" edge="1" parent="1" source="Xwy3CmNZhMF4MyUA5o1_-32" target="Xwy3CmNZhMF4MyUA5o1_-19">
          <mxGeometry relative="1" as="geometry">
            <mxPoint x="210" y="530" as="sourcePoint" />
            <mxPoint x="360" y="511" as="targetPoint" />
          </mxGeometry>
        </mxCell>
      </root>
    </mxGraphModel>
  </diagram>
</mxfile>
